<svg id="Слой_1" data-name="Слой 1" xmlns="http://www.w3.org/2000/svg" xmlns:xlink="http://www.w3.org/1999/xlink" viewBox="0 0 1763.18 320"><defs><style>.cls-1{fill:#fff;}.cls-2{fill:url(#Безымянный_градиент_10);}.cls-3{fill:url(#Безымянный_градиент_10-2);}</style><linearGradient id="Безымянный_градиент_10" x1="157.34" y1="290.35" x2="158.55" y2="289.45" gradientUnits="userSpaceOnUse"><stop offset="0" stop-color="#84f4ac"/><stop offset="0.99" stop-color="#4ca4ff"/></linearGradient><linearGradient id="Безымянный_градиент_10-2" x1="56.72" y1="236.72" x2="257.96" y2="87.24" xlink:href="#Безымянный_градиент_10"/></defs><circle class="cls-1" cx="160" cy="160" r="160"/><path class="cls-2" d="M157,290c.64,0,1.29,0,1.94,0l-1-1Z"/><path class="cls-3" d="M176.54,159,244.2,61A130,130,0,0,0,78.6,58.65a43,43,0,1,1-35.55,44.52,130.09,130.09,0,0,0,74.16,179.61l17.28-17.28L93.13,224.13l23-23L157.5,242.5l43-43L224,223l-43,43,18,18a130.08,130.08,0,0,0,90.79-117.11Z"/><path d="M565.84,173.8c-5.83,38.34-35.2,65.7-102.47,65.7-76,0-103.6-35-103.6-81.17,0-46.42,27.58-81.4,103.6-81.4,67.27,0,96.64,27.58,102.47,65.92H549.25c-5.83-29.6-30.27-50.22-85.88-50.22-64.8,0-87.23,28-87.23,65.7s22.43,65.47,87.23,65.47c55.61,0,80-20.41,85.88-50Z"/><path d="M617.4,236.81H601.93V102.27H617.4V148c9.2-27.58,34.31-48.43,82.07-48.43v15c-58.52,0-82.07,30.94-82.07,65.92Z"/><path d="M902.62,169.54a40.42,40.42,0,0,1-.23,5.38H733.78c1.56,30,24,52,76.46,52,39.91,0,62.33-12.56,71.53-31.84h16.59c-9.87,26.91-37.45,44.4-88.12,44.4-65.7,0-92.38-29.38-92.38-70s26.68-70.19,92.38-70.19S902.62,129,902.62,169.54Zm-168.84-5.61H886.7c-1.57-29.82-23.77-51.8-76.46-51.8C757.77,112.13,735.34,134.11,733.78,163.93Z"/><path d="M1098.81,137.92V102.27h15.47V236.81h-15.47V201.15c-11.21,23.32-37,38.35-81.39,38.35-61.89,0-87.9-29.38-87.9-70s26-70,87.9-70C1061.81,99.58,1087.6,114.6,1098.81,137.92Zm0,31.62c0-31.84-21.52-55.39-76.91-55.39S945,137.7,945,169.54s21.53,55.38,76.91,55.38S1098.81,201.38,1098.81,169.54Z"/><path d="M1317.65,137.47v-35.2h15.47V212.14c0,45.29-16.59,74-100.9,74a249,249,0,0,1-74-11.22V260.8c21.07,6.5,44.17,11.66,71.08,11.66,74.66,0,88.34-22.65,88.34-60.32V199.58c-11.21,23.1-37,37.9-81.39,37.9-61.89,0-87.9-28.93-87.9-68.84,0-40.14,26-69.06,87.9-69.06C1280.65,99.58,1306.44,114.38,1317.65,137.47Zm0,31.62c0-31.62-21.52-54.94-76.91-54.94s-76.91,23.32-76.91,54.94S1185.36,224,1240.74,224,1317.65,200.7,1317.65,169.09Z"/><path d="M1552,169.54c0,40.58-26.69,70-92.39,70s-92.38-29.38-92.38-70,26.68-70,92.38-70S1552,129,1552,169.54Zm-15.48,0c0-31.84-21.52-55.39-76.91-55.39s-76.91,23.55-76.91,55.39,21.53,55.38,76.91,55.38S1536.49,201.38,1536.49,169.54Z"/><path d="M1763.18,169.54c0,40.58-26.68,70-92.38,70s-92.38-29.38-92.38-70,26.68-70,92.38-70S1763.18,129,1763.18,169.54Zm-15.47,0c0-31.84-21.53-55.39-76.91-55.39s-76.91,23.55-76.91,55.39,21.52,55.38,76.91,55.38S1747.71,201.38,1747.71,169.54Z"/></svg>