<svg id="Слой_1" data-name="Слой 1" xmlns="http://www.w3.org/2000/svg" xmlns:xlink="http://www.w3.org/1999/xlink" viewBox="0 0 1591.43 320"><defs><style>.cls-1{fill:#fff;}.cls-2{fill:url(#Безымянный_градиент_10);}.cls-3{fill:url(#Безымянный_градиент_10-2);}</style><linearGradient id="Безымянный_градиент_10" x1="157.34" y1="290.35" x2="158.55" y2="289.45" gradientUnits="userSpaceOnUse"><stop offset="0" stop-color="#84f4ac"/><stop offset="0.99" stop-color="#4ca4ff"/></linearGradient><linearGradient id="Безымянный_градиент_10-2" x1="56.72" y1="236.72" x2="257.96" y2="87.24" xlink:href="#Безымянный_градиент_10"/></defs><circle class="cls-1" cx="160" cy="160" r="160"/><path class="cls-2" d="M157,290c.64,0,1.29,0,1.94,0l-1-1Z"/><path class="cls-3" d="M176.54,159,244.2,61A130,130,0,0,0,78.6,58.65a43,43,0,1,1-35.55,44.52,130.09,130.09,0,0,0,74.16,179.61l17.28-17.28L93.13,224.13l23-23L157.5,242.5l43-43L224,223l-43,43,18,18a130.08,130.08,0,0,0,90.79-117.11Z"/><path d="M540.05,79.85h20.18L486,158.33l74.22,78.48H540.05l-67.49-71.09H384.44v71.09H367.85v-157h16.59V150.7h88.12Z"/><path d="M775,169.54c0,40.58-26,70-88.12,70-44.18,0-70.19-15-81.4-38.35v80.5H590.05V102.27h15.47v35.65c11.21-23.32,37.22-38.34,81.4-38.34C749,99.58,775,129,775,169.54Zm-15.47,0c0-31.84-21.53-55.39-76.91-55.39s-77.14,23.55-77.14,55.39,21.75,55.38,77.14,55.38S759.57,201.38,759.57,169.54Z"/><path d="M986.26,169.54a40.42,40.42,0,0,1-.23,5.38H817.41c1.57,30,24,52,76.46,52,39.92,0,62.34-12.56,71.53-31.84H982c-9.86,26.91-37.44,44.4-88.12,44.4-65.7,0-92.38-29.38-92.38-70s26.68-70.19,92.38-70.19S986.26,129,986.26,169.54Zm-168.85-5.61H970.34c-1.57-29.82-23.77-51.8-76.47-51.8C841.4,112.13,819,134.11,817.41,163.93Z"/><path d="M1182.45,137.92V102.27h15.47V236.81h-15.47V201.15c-11.21,23.32-37,38.35-81.4,38.35-61.88,0-87.9-29.38-87.9-70s26-70,87.9-70C1145.45,99.58,1171.24,114.6,1182.45,137.92Zm0,31.62c0-31.84-21.53-55.39-76.91-55.39s-76.91,23.55-76.91,55.39,21.52,55.38,76.91,55.38S1182.45,201.38,1182.45,169.54Z"/><path d="M1240.29,102.27H1376v13.9H1255.76V236.81h-15.47Z"/><path d="M1490.08,226.27l84.08-124h17.27L1472.14,281.65h-17.27l29.82-44.84h-6.5l-89.46-134.54H1406Z"/></svg>